<?xml version="1.0" encoding="utf-8"?>
<!-- Generator: Adobe Illustrator 25.0.1, SVG Export Plug-In . SVG Version: 6.00 Build 0)  -->
<svg version="1.1" id="Layer_1" xmlns="http://www.w3.org/2000/svg" xmlns:xlink="http://www.w3.org/1999/xlink" x="0px" y="0px"
	 viewBox="0 0 1920 2100" style="enable-background:new 0 0 1920 2100;" xml:space="preserve">
<style type="text/css">
	.st0{display:none;fill:#FCC163;}
	.st1{display:none;fill:#EFEF0C;}
	.st2{display:none;fill:#86DB86;}
	.st3{display:none;fill:#409140;}
	.st4{fill:none;stroke:#86DB86;stroke-width:10;stroke-miterlimit:10;}
	.st5{fill:none;stroke:#86DB86;stroke-width:5;stroke-miterlimit:10;}
	.st6{fill:none;stroke:#409140;stroke-width:10;stroke-miterlimit:10;}
	.st7{fill:none;stroke:#409140;stroke-width:5;stroke-miterlimit:10;}
	.st8{fill:none;stroke:#EFEF0C;stroke-width:10;stroke-miterlimit:10;}
	.st9{fill:none;stroke:#EFEF0C;stroke-width:20;stroke-miterlimit:10;}
	.st10{fill:none;stroke:#FCC163;stroke-width:10;stroke-miterlimit:10;}
	.st11{fill:none;stroke:#FCC163;stroke-width:20;stroke-miterlimit:10;}
</style>
<path class="st0" d="M328.91,194.83c0-82.68-44.4-154.98-110.66-194.37H0.07v281.07c12.24-2.97,25.02-4.55,38.17-4.55
	c76.32,0,140.27,52.94,157.15,124.1C274.1,365.75,328.91,286.69,328.91,194.83z"/>
<path class="st1" d="M195.39,401.08c-16.88-71.16-80.83-124.1-157.15-124.1c-13.15,0-25.93,1.58-38.17,4.55v114.55v199.38
	c12.24,2.97,25.02,4.55,38.17,4.55c89.2,0,161.51-72.31,161.51-161.51C199.75,425.61,198.24,413.08,195.39,401.08z"/>
<path class="st2" d="M1783.54,1819.48c52.69,0,100.99,18.83,138.54,50.11v-268.81c-23.65-7.67-48.89-11.81-75.09-11.81
	c-134.38,0-243.31,108.93-243.31,243.31c0,24.11,3.51,47.4,10.04,69.38C1653.37,1851.61,1714.7,1819.48,1783.54,1819.48z"/>
<path class="st3" d="M1783.54,1819.48c-68.84,0-130.17,32.12-169.83,82.19c-29.24,36.92-46.71,83.59-46.71,134.35
	c0,24.66,4.12,48.35,11.72,70.43h343.35v-42.66V1869.6C1884.53,1838.31,1836.23,1819.48,1783.54,1819.48z"/>
<circle class="st4" cx="1531.5" cy="182.5" r="51.5"/>
<circle class="st5" cx="1531.5" cy="182.5" r="30.5"/>
<circle class="st4" cx="494" cy="987" r="29"/>
<circle class="st6" cx="1483" cy="151" r="30"/>
<circle class="st7" cx="1483" cy="151" r="18"/>
<circle class="st8" cx="253.78" cy="1849.71" r="90.71"/>
<circle class="st8" cx="253.78" cy="1849.71" r="65.71"/>
<circle class="st9" cx="1460.5" cy="1626.5" r="45.5"/>
<circle class="st10" cx="332.12" cy="1926.3" r="53.85"/>
<circle class="st10" cx="332.35" cy="1926.08" r="38.08"/>
<circle class="st11" cx="1722.5" cy="965.5" r="50.5"/>
</svg>
